<mxfile host="app.diagrams.net" modified="2020-11-02T05:09:48.531Z" agent="5.0 (X11; Linux x86_64) AppleWebKit/537.36 (KHTML, like Gecko) Chrome/86.0.4240.111 Safari/537.36" etag="TP1tnGmfiadt-l55MCZX" version="13.8.8" type="github">
  <diagram id="wkKprQKMh2lIjEy9JK0p" name="Page-1">
    <mxGraphModel dx="2249" dy="1919" grid="1" gridSize="10" guides="1" tooltips="1" connect="1" arrows="1" fold="1" page="1" pageScale="1" pageWidth="827" pageHeight="1169" math="0" shadow="0">
      <root>
        <mxCell id="0" />
        <mxCell id="1" parent="0" />
        <mxCell id="LhpffrZuen5v1YRQ7B42-3" style="edgeStyle=orthogonalEdgeStyle;rounded=0;orthogonalLoop=1;jettySize=auto;html=1;" parent="1" source="dFKXp6tCZQXhxMECFwLC-1" target="LhpffrZuen5v1YRQ7B42-1" edge="1">
          <mxGeometry relative="1" as="geometry" />
        </mxCell>
        <mxCell id="dFKXp6tCZQXhxMECFwLC-1" value="CameraPi&lt;br&gt;Start" style="ellipse;whiteSpace=wrap;html=1;aspect=fixed;" parent="1" vertex="1">
          <mxGeometry x="100" y="-100" width="100" height="100" as="geometry" />
        </mxCell>
        <mxCell id="dFKXp6tCZQXhxMECFwLC-48" style="edgeStyle=orthogonalEdgeStyle;rounded=0;orthogonalLoop=1;jettySize=auto;html=1;" parent="1" source="dFKXp6tCZQXhxMECFwLC-3" target="dFKXp6tCZQXhxMECFwLC-88" edge="1">
          <mxGeometry relative="1" as="geometry">
            <mxPoint x="150" y="470" as="targetPoint" />
          </mxGeometry>
        </mxCell>
        <mxCell id="dFKXp6tCZQXhxMECFwLC-72" style="edgeStyle=orthogonalEdgeStyle;rounded=0;orthogonalLoop=1;jettySize=auto;html=1;entryX=0;entryY=0.5;entryDx=0;entryDy=0;" parent="1" source="dFKXp6tCZQXhxMECFwLC-3" target="dFKXp6tCZQXhxMECFwLC-88" edge="1">
          <mxGeometry relative="1" as="geometry">
            <mxPoint x="-155" y="480" as="targetPoint" />
            <Array as="points">
              <mxPoint x="-10" y="190" />
              <mxPoint x="-10" y="510" />
            </Array>
          </mxGeometry>
        </mxCell>
        <mxCell id="dFKXp6tCZQXhxMECFwLC-3" value="&lt;span style=&quot;color: rgb(0 , 0 , 0) ; font-family: &amp;#34;helvetica&amp;#34; ; font-size: 12px ; font-style: normal ; font-weight: 400 ; letter-spacing: normal ; text-align: center ; text-indent: 0px ; text-transform: none ; word-spacing: 0px ; background-color: rgb(248 , 249 , 250) ; display: inline ; float: none&quot;&gt;相方マイコンの存在確認&lt;br&gt;ARP&lt;br&gt;&lt;/span&gt;" style="rhombus;whiteSpace=wrap;html=1;" parent="1" vertex="1">
          <mxGeometry x="60" y="150" width="180" height="80" as="geometry" />
        </mxCell>
        <mxCell id="dFKXp6tCZQXhxMECFwLC-5" value="true" style="text;html=1;strokeColor=none;fillColor=none;align=center;verticalAlign=middle;whiteSpace=wrap;rounded=0;" parent="1" vertex="1">
          <mxGeometry x="190" y="230" width="40" height="20" as="geometry" />
        </mxCell>
        <mxCell id="dFKXp6tCZQXhxMECFwLC-59" style="edgeStyle=orthogonalEdgeStyle;rounded=0;orthogonalLoop=1;jettySize=auto;html=1;entryX=0.5;entryY=0;entryDx=0;entryDy=0;" parent="1" source="dFKXp6tCZQXhxMECFwLC-54" target="dFKXp6tCZQXhxMECFwLC-58" edge="1">
          <mxGeometry relative="1" as="geometry" />
        </mxCell>
        <mxCell id="dFKXp6tCZQXhxMECFwLC-54" value="画像処理" style="rounded=1;whiteSpace=wrap;html=1;" parent="1" vertex="1">
          <mxGeometry x="75" y="1040" width="150" height="70" as="geometry" />
        </mxCell>
        <mxCell id="dFKXp6tCZQXhxMECFwLC-90" style="edgeStyle=orthogonalEdgeStyle;rounded=0;orthogonalLoop=1;jettySize=auto;html=1;entryX=0.116;entryY=0.683;entryDx=0;entryDy=0;entryPerimeter=0;" parent="1" source="dFKXp6tCZQXhxMECFwLC-58" target="dFKXp6tCZQXhxMECFwLC-3" edge="1">
          <mxGeometry relative="1" as="geometry">
            <Array as="points">
              <mxPoint x="20" y="1240" />
              <mxPoint x="20" y="205" />
            </Array>
          </mxGeometry>
        </mxCell>
        <mxCell id="dFKXp6tCZQXhxMECFwLC-58" value="&lt;span style=&quot;color: rgb(0 , 0 , 0) ; font-family: &amp;#34;helvetica&amp;#34; ; font-size: 12px ; font-style: normal ; font-weight: 400 ; letter-spacing: normal ; text-align: center ; text-indent: 0px ; text-transform: none ; word-spacing: 0px ; background-color: rgb(248 , 249 , 250) ; display: inline ; float: none&quot;&gt;サーバに処理結果を送信&lt;br&gt;&lt;/span&gt;" style="rhombus;whiteSpace=wrap;html=1;" parent="1" vertex="1">
          <mxGeometry x="60" y="1200" width="180" height="80" as="geometry" />
        </mxCell>
        <mxCell id="dFKXp6tCZQXhxMECFwLC-62" value="true" style="text;html=1;strokeColor=none;fillColor=none;align=center;verticalAlign=middle;whiteSpace=wrap;rounded=0;" parent="1" vertex="1">
          <mxGeometry x="20" y="1190" width="40" height="20" as="geometry" />
        </mxCell>
        <mxCell id="dFKXp6tCZQXhxMECFwLC-65" value="" style="endArrow=classic;html=1;" parent="1" edge="1">
          <mxGeometry width="50" height="50" relative="1" as="geometry">
            <mxPoint x="240" y="1240" as="sourcePoint" />
            <mxPoint x="150" y="1150" as="targetPoint" />
            <Array as="points">
              <mxPoint x="240" y="1150" />
            </Array>
          </mxGeometry>
        </mxCell>
        <mxCell id="dFKXp6tCZQXhxMECFwLC-67" value="false" style="text;html=1;strokeColor=none;fillColor=none;align=center;verticalAlign=middle;whiteSpace=wrap;rounded=0;" parent="1" vertex="1">
          <mxGeometry x="190" y="1169" width="40" height="20" as="geometry" />
        </mxCell>
        <mxCell id="dFKXp6tCZQXhxMECFwLC-70" value="false" style="text;html=1;strokeColor=none;fillColor=none;align=center;verticalAlign=middle;whiteSpace=wrap;rounded=0;" parent="1" vertex="1">
          <mxGeometry x="15.5" y="160" width="40" height="20" as="geometry" />
        </mxCell>
        <mxCell id="dFKXp6tCZQXhxMECFwLC-75" style="edgeStyle=orthogonalEdgeStyle;rounded=0;orthogonalLoop=1;jettySize=auto;html=1;" parent="1" source="dFKXp6tCZQXhxMECFwLC-73" target="dFKXp6tCZQXhxMECFwLC-74" edge="1">
          <mxGeometry relative="1" as="geometry" />
        </mxCell>
        <mxCell id="dFKXp6tCZQXhxMECFwLC-73" value="PLCからステーション&lt;br&gt;情報取得" style="rounded=1;whiteSpace=wrap;html=1;" parent="1" vertex="1">
          <mxGeometry x="-247.5" y="510" width="150" height="70" as="geometry" />
        </mxCell>
        <mxCell id="dFKXp6tCZQXhxMECFwLC-171" style="edgeStyle=orthogonalEdgeStyle;rounded=0;orthogonalLoop=1;jettySize=auto;html=1;entryX=0;entryY=0.5;entryDx=0;entryDy=0;" parent="1" source="dFKXp6tCZQXhxMECFwLC-74" target="dFKXp6tCZQXhxMECFwLC-73" edge="1">
          <mxGeometry relative="1" as="geometry">
            <mxPoint x="-167.5" y="735" as="targetPoint" />
            <Array as="points">
              <mxPoint x="-280" y="650" />
              <mxPoint x="-280" y="545" />
            </Array>
          </mxGeometry>
        </mxCell>
        <mxCell id="dFKXp6tCZQXhxMECFwLC-74" value="ステーションの情報&lt;br&gt;をサーバに送信" style="rounded=1;whiteSpace=wrap;html=1;" parent="1" vertex="1">
          <mxGeometry x="-250" y="630" width="155" height="70" as="geometry" />
        </mxCell>
        <mxCell id="gs2BWEIWhmqGeNFwZReW-1" style="edgeStyle=orthogonalEdgeStyle;rounded=0;orthogonalLoop=1;jettySize=auto;html=1;entryX=0.5;entryY=0;entryDx=0;entryDy=0;" parent="1" source="dFKXp6tCZQXhxMECFwLC-88" target="dFKXp6tCZQXhxMECFwLC-113" edge="1">
          <mxGeometry relative="1" as="geometry" />
        </mxCell>
        <mxCell id="dFKXp6tCZQXhxMECFwLC-88" value="&lt;span style=&quot;font-family: &amp;#34;helvetica&amp;#34;&quot;&gt;コンベア静止の確認&lt;/span&gt;&lt;br style=&quot;font-family: &amp;#34;helvetica&amp;#34;&quot;&gt;&lt;span style=&quot;font-family: &amp;#34;helvetica&amp;#34;&quot;&gt;通信をPLCへ&lt;/span&gt;" style="rounded=1;whiteSpace=wrap;html=1;" parent="1" vertex="1">
          <mxGeometry x="75" y="475" width="150" height="70" as="geometry" />
        </mxCell>
        <mxCell id="dFKXp6tCZQXhxMECFwLC-185" style="edgeStyle=orthogonalEdgeStyle;rounded=0;orthogonalLoop=1;jettySize=auto;html=1;" parent="1" source="dFKXp6tCZQXhxMECFwLC-113" target="dFKXp6tCZQXhxMECFwLC-177" edge="1">
          <mxGeometry relative="1" as="geometry">
            <Array as="points">
              <mxPoint y="784" />
              <mxPoint y="784" />
            </Array>
          </mxGeometry>
        </mxCell>
        <mxCell id="dFKXp6tCZQXhxMECFwLC-187" style="edgeStyle=orthogonalEdgeStyle;rounded=0;orthogonalLoop=1;jettySize=auto;html=1;entryX=0.5;entryY=0;entryDx=0;entryDy=0;" parent="1" source="dFKXp6tCZQXhxMECFwLC-113" target="dFKXp6tCZQXhxMECFwLC-186" edge="1">
          <mxGeometry relative="1" as="geometry" />
        </mxCell>
        <mxCell id="dFKXp6tCZQXhxMECFwLC-113" value="止まった時の映像要求&lt;br&gt;プロセス間通信" style="rounded=1;whiteSpace=wrap;html=1;" parent="1" vertex="1">
          <mxGeometry x="75" y="749" width="150" height="70" as="geometry" />
        </mxCell>
        <mxCell id="dFKXp6tCZQXhxMECFwLC-122" style="edgeStyle=orthogonalEdgeStyle;rounded=0;orthogonalLoop=1;jettySize=auto;html=1;" parent="1" source="dFKXp6tCZQXhxMECFwLC-123" target="dFKXp6tCZQXhxMECFwLC-126" edge="1">
          <mxGeometry relative="1" as="geometry" />
        </mxCell>
        <mxCell id="dFKXp6tCZQXhxMECFwLC-123" value="プローブPi&lt;br&gt;Start" style="ellipse;whiteSpace=wrap;html=1;aspect=fixed;" parent="1" vertex="1">
          <mxGeometry x="710" y="160" width="100" height="100" as="geometry" />
        </mxCell>
        <mxCell id="dFKXp6tCZQXhxMECFwLC-124" style="edgeStyle=orthogonalEdgeStyle;rounded=0;orthogonalLoop=1;jettySize=auto;html=1;" parent="1" source="dFKXp6tCZQXhxMECFwLC-126" target="dFKXp6tCZQXhxMECFwLC-152" edge="1">
          <mxGeometry relative="1" as="geometry">
            <mxPoint x="760" y="470" as="targetPoint" />
          </mxGeometry>
        </mxCell>
        <mxCell id="dFKXp6tCZQXhxMECFwLC-125" style="edgeStyle=orthogonalEdgeStyle;rounded=0;orthogonalLoop=1;jettySize=auto;html=1;entryX=0;entryY=0.5;entryDx=0;entryDy=0;" parent="1" source="dFKXp6tCZQXhxMECFwLC-126" target="dFKXp6tCZQXhxMECFwLC-152" edge="1">
          <mxGeometry relative="1" as="geometry">
            <mxPoint x="455" y="480" as="targetPoint" />
            <Array as="points">
              <mxPoint x="610" y="350" />
              <mxPoint x="610" y="510" />
            </Array>
          </mxGeometry>
        </mxCell>
        <mxCell id="dFKXp6tCZQXhxMECFwLC-126" value="&lt;span style=&quot;color: rgb(0 , 0 , 0) ; font-family: &amp;#34;helvetica&amp;#34; ; font-size: 12px ; font-style: normal ; font-weight: 400 ; letter-spacing: normal ; text-align: center ; text-indent: 0px ; text-transform: none ; word-spacing: 0px ; background-color: rgb(248 , 249 , 250) ; display: inline ; float: none&quot;&gt;相方マイコンの存在確認&lt;br&gt;ARP&lt;br&gt;&lt;/span&gt;" style="rhombus;whiteSpace=wrap;html=1;" parent="1" vertex="1">
          <mxGeometry x="670" y="310" width="180" height="80" as="geometry" />
        </mxCell>
        <mxCell id="dFKXp6tCZQXhxMECFwLC-127" value="true" style="text;html=1;strokeColor=none;fillColor=none;align=center;verticalAlign=middle;whiteSpace=wrap;rounded=0;" parent="1" vertex="1">
          <mxGeometry x="781" y="390" width="40" height="20" as="geometry" />
        </mxCell>
        <mxCell id="dFKXp6tCZQXhxMECFwLC-128" style="edgeStyle=orthogonalEdgeStyle;rounded=0;orthogonalLoop=1;jettySize=auto;html=1;exitX=0.5;exitY=1;exitDx=0;exitDy=0;" parent="1" source="dFKXp6tCZQXhxMECFwLC-152" target="dFKXp6tCZQXhxMECFwLC-130" edge="1">
          <mxGeometry relative="1" as="geometry">
            <mxPoint x="760" y="550" as="sourcePoint" />
          </mxGeometry>
        </mxCell>
        <mxCell id="dFKXp6tCZQXhxMECFwLC-129" style="edgeStyle=orthogonalEdgeStyle;rounded=0;orthogonalLoop=1;jettySize=auto;html=1;" parent="1" source="dFKXp6tCZQXhxMECFwLC-130" target="dFKXp6tCZQXhxMECFwLC-154" edge="1">
          <mxGeometry relative="1" as="geometry" />
        </mxCell>
        <mxCell id="dFKXp6tCZQXhxMECFwLC-130" value="プローブで測定" style="rounded=1;whiteSpace=wrap;html=1;" parent="1" vertex="1">
          <mxGeometry x="685" y="585" width="150" height="70" as="geometry" />
        </mxCell>
        <mxCell id="dFKXp6tCZQXhxMECFwLC-133" style="edgeStyle=orthogonalEdgeStyle;rounded=0;orthogonalLoop=1;jettySize=auto;html=1;entryX=0.116;entryY=0.683;entryDx=0;entryDy=0;entryPerimeter=0;" parent="1" source="dFKXp6tCZQXhxMECFwLC-134" target="dFKXp6tCZQXhxMECFwLC-126" edge="1">
          <mxGeometry relative="1" as="geometry">
            <Array as="points">
              <mxPoint x="630" y="970" />
              <mxPoint x="630" y="365" />
            </Array>
          </mxGeometry>
        </mxCell>
        <mxCell id="dFKXp6tCZQXhxMECFwLC-134" value="&lt;span style=&quot;color: rgb(0 , 0 , 0) ; font-family: &amp;#34;helvetica&amp;#34; ; font-size: 12px ; font-style: normal ; font-weight: 400 ; letter-spacing: normal ; text-align: center ; text-indent: 0px ; text-transform: none ; word-spacing: 0px ; background-color: rgb(248 , 249 , 250) ; display: inline ; float: none&quot;&gt;サーバに処理結果を送信&lt;br&gt;&lt;/span&gt;" style="rhombus;whiteSpace=wrap;html=1;" parent="1" vertex="1">
          <mxGeometry x="670" y="930" width="180" height="80" as="geometry" />
        </mxCell>
        <mxCell id="dFKXp6tCZQXhxMECFwLC-135" value="true" style="text;html=1;strokeColor=none;fillColor=none;align=center;verticalAlign=middle;whiteSpace=wrap;rounded=0;" parent="1" vertex="1">
          <mxGeometry x="640" y="930" width="40" height="20" as="geometry" />
        </mxCell>
        <mxCell id="dFKXp6tCZQXhxMECFwLC-136" value="" style="endArrow=classic;html=1;" parent="1" edge="1">
          <mxGeometry width="50" height="50" relative="1" as="geometry">
            <mxPoint x="850" y="969.9999999999995" as="sourcePoint" />
            <mxPoint x="760" y="879.9999999999995" as="targetPoint" />
            <Array as="points">
              <mxPoint x="850" y="880" />
            </Array>
          </mxGeometry>
        </mxCell>
        <mxCell id="dFKXp6tCZQXhxMECFwLC-137" value="false" style="text;html=1;strokeColor=none;fillColor=none;align=center;verticalAlign=middle;whiteSpace=wrap;rounded=0;" parent="1" vertex="1">
          <mxGeometry x="870" y="900" width="40" height="20" as="geometry" />
        </mxCell>
        <mxCell id="dFKXp6tCZQXhxMECFwLC-138" value="false" style="text;html=1;strokeColor=none;fillColor=none;align=center;verticalAlign=middle;whiteSpace=wrap;rounded=0;" parent="1" vertex="1">
          <mxGeometry x="625.5" y="320" width="40" height="20" as="geometry" />
        </mxCell>
        <mxCell id="dFKXp6tCZQXhxMECFwLC-151" value="false" style="text;html=1;strokeColor=none;fillColor=none;align=center;verticalAlign=middle;whiteSpace=wrap;rounded=0;" parent="1" vertex="1">
          <mxGeometry x="570" y="990" width="40" height="20" as="geometry" />
        </mxCell>
        <mxCell id="dFKXp6tCZQXhxMECFwLC-152" value="&lt;span style=&quot;font-family: &amp;#34;helvetica&amp;#34;&quot;&gt;コンベア静止の確認&lt;/span&gt;&lt;br style=&quot;font-family: &amp;#34;helvetica&amp;#34;&quot;&gt;&lt;span style=&quot;font-family: &amp;#34;helvetica&amp;#34;&quot;&gt;通信をPLCへ&lt;/span&gt;" style="rounded=1;whiteSpace=wrap;html=1;" parent="1" vertex="1">
          <mxGeometry x="685" y="475" width="150" height="70" as="geometry" />
        </mxCell>
        <mxCell id="dFKXp6tCZQXhxMECFwLC-157" style="edgeStyle=orthogonalEdgeStyle;rounded=0;orthogonalLoop=1;jettySize=auto;html=1;" parent="1" source="dFKXp6tCZQXhxMECFwLC-154" target="dFKXp6tCZQXhxMECFwLC-134" edge="1">
          <mxGeometry relative="1" as="geometry" />
        </mxCell>
        <mxCell id="dFKXp6tCZQXhxMECFwLC-154" value="測定完了をPLCに知らせる" style="rounded=1;whiteSpace=wrap;html=1;" parent="1" vertex="1">
          <mxGeometry x="685" y="730" width="150" height="70" as="geometry" />
        </mxCell>
        <mxCell id="dFKXp6tCZQXhxMECFwLC-180" style="edgeStyle=orthogonalEdgeStyle;rounded=0;orthogonalLoop=1;jettySize=auto;html=1;" parent="1" source="dFKXp6tCZQXhxMECFwLC-167" target="dFKXp6tCZQXhxMECFwLC-179" edge="1">
          <mxGeometry relative="1" as="geometry" />
        </mxCell>
        <mxCell id="dFKXp6tCZQXhxMECFwLC-167" value="VideoOutputPi" style="ellipse;whiteSpace=wrap;html=1;aspect=fixed;" parent="1" vertex="1">
          <mxGeometry x="-470.14" y="60" width="100" height="100" as="geometry" />
        </mxCell>
        <mxCell id="dFKXp6tCZQXhxMECFwLC-182" style="edgeStyle=orthogonalEdgeStyle;rounded=0;orthogonalLoop=1;jettySize=auto;html=1;entryX=0;entryY=0.5;entryDx=0;entryDy=0;" parent="1" source="dFKXp6tCZQXhxMECFwLC-168" target="dFKXp6tCZQXhxMECFwLC-179" edge="1">
          <mxGeometry relative="1" as="geometry">
            <Array as="points">
              <mxPoint x="-500.14" y="455" />
              <mxPoint x="-500.14" y="320" />
            </Array>
          </mxGeometry>
        </mxCell>
        <mxCell id="dFKXp6tCZQXhxMECFwLC-168" value="カメラリアルタイム撮影" style="rounded=1;whiteSpace=wrap;html=1;" parent="1" vertex="1">
          <mxGeometry x="-480.14" y="425" width="120" height="60" as="geometry" />
        </mxCell>
        <mxCell id="dFKXp6tCZQXhxMECFwLC-173" value="" style="shape=flexArrow;endArrow=classic;html=1;entryX=0.999;entryY=0.611;entryDx=0;entryDy=0;entryPerimeter=0;exitX=0;exitY=0.75;exitDx=0;exitDy=0;" parent="1" target="dFKXp6tCZQXhxMECFwLC-167" edge="1" source="LhpffrZuen5v1YRQ7B42-4">
          <mxGeometry width="50" height="50" relative="1" as="geometry">
            <mxPoint x="150" y="280" as="sourcePoint" />
            <mxPoint x="-70" y="560" as="targetPoint" />
          </mxGeometry>
        </mxCell>
        <mxCell id="dFKXp6tCZQXhxMECFwLC-174" value="プロセス分離" style="edgeLabel;html=1;align=center;verticalAlign=middle;resizable=0;points=[];" parent="dFKXp6tCZQXhxMECFwLC-173" vertex="1" connectable="0">
          <mxGeometry x="-0.0947" y="4" relative="1" as="geometry">
            <mxPoint as="offset" />
          </mxGeometry>
        </mxCell>
        <mxCell id="dFKXp6tCZQXhxMECFwLC-183" style="edgeStyle=orthogonalEdgeStyle;rounded=0;orthogonalLoop=1;jettySize=auto;html=1;entryX=1;entryY=0.5;entryDx=0;entryDy=0;" parent="1" source="dFKXp6tCZQXhxMECFwLC-177" target="dFKXp6tCZQXhxMECFwLC-179" edge="1">
          <mxGeometry relative="1" as="geometry">
            <Array as="points">
              <mxPoint x="-310" y="320" />
            </Array>
          </mxGeometry>
        </mxCell>
        <mxCell id="dFKXp6tCZQXhxMECFwLC-177" value="" style="pointerEvents=1;shadow=0;dashed=0;html=1;strokeColor=none;fillColor=#005F4B;labelPosition=center;verticalLabelPosition=bottom;verticalAlign=top;align=center;outlineConnect=0;shape=mxgraph.veeam2.cpu_socket;" parent="1" vertex="1">
          <mxGeometry x="-330" y="770" width="28.000000000000004" height="28.000000000000004" as="geometry" />
        </mxCell>
        <mxCell id="dFKXp6tCZQXhxMECFwLC-181" style="edgeStyle=orthogonalEdgeStyle;rounded=0;orthogonalLoop=1;jettySize=auto;html=1;entryX=0.5;entryY=0;entryDx=0;entryDy=0;" parent="1" source="dFKXp6tCZQXhxMECFwLC-179" target="dFKXp6tCZQXhxMECFwLC-168" edge="1">
          <mxGeometry relative="1" as="geometry" />
        </mxCell>
        <mxCell id="dFKXp6tCZQXhxMECFwLC-179" value="プロセス間通信待受" style="rounded=1;whiteSpace=wrap;html=1;" parent="1" vertex="1">
          <mxGeometry x="-480.14" y="290" width="120" height="60" as="geometry" />
        </mxCell>
        <mxCell id="dFKXp6tCZQXhxMECFwLC-188" style="edgeStyle=orthogonalEdgeStyle;rounded=0;orthogonalLoop=1;jettySize=auto;html=1;entryX=0.5;entryY=0;entryDx=0;entryDy=0;" parent="1" source="dFKXp6tCZQXhxMECFwLC-186" target="dFKXp6tCZQXhxMECFwLC-54" edge="1">
          <mxGeometry relative="1" as="geometry" />
        </mxCell>
        <mxCell id="dFKXp6tCZQXhxMECFwLC-186" value="撮影完了をPLCに知らせる" style="rounded=1;whiteSpace=wrap;html=1;" parent="1" vertex="1">
          <mxGeometry x="75" y="915" width="150" height="70" as="geometry" />
        </mxCell>
        <mxCell id="gs2BWEIWhmqGeNFwZReW-2" value="" style="shape=flexArrow;endArrow=classic;html=1;" parent="1" edge="1">
          <mxGeometry width="50" height="50" relative="1" as="geometry">
            <mxPoint x="-10" y="410" as="sourcePoint" />
            <mxPoint x="-120" y="410" as="targetPoint" />
          </mxGeometry>
        </mxCell>
        <mxCell id="gs2BWEIWhmqGeNFwZReW-3" value="プロセス分離" style="edgeLabel;html=1;align=center;verticalAlign=middle;resizable=0;points=[];" parent="gs2BWEIWhmqGeNFwZReW-2" vertex="1" connectable="0">
          <mxGeometry x="-0.0947" y="4" relative="1" as="geometry">
            <mxPoint as="offset" />
          </mxGeometry>
        </mxCell>
        <mxCell id="gs2BWEIWhmqGeNFwZReW-5" style="edgeStyle=orthogonalEdgeStyle;rounded=0;orthogonalLoop=1;jettySize=auto;html=1;" parent="1" source="gs2BWEIWhmqGeNFwZReW-4" target="dFKXp6tCZQXhxMECFwLC-73" edge="1">
          <mxGeometry relative="1" as="geometry" />
        </mxCell>
        <mxCell id="gs2BWEIWhmqGeNFwZReW-4" value="PLC_COMMS" style="ellipse;whiteSpace=wrap;html=1;aspect=fixed;" parent="1" vertex="1">
          <mxGeometry x="-222.5" y="360" width="100" height="100" as="geometry" />
        </mxCell>
        <mxCell id="gs2BWEIWhmqGeNFwZReW-7" style="edgeStyle=orthogonalEdgeStyle;rounded=0;orthogonalLoop=1;jettySize=auto;html=1;" parent="1" source="gs2BWEIWhmqGeNFwZReW-8" target="gs2BWEIWhmqGeNFwZReW-10" edge="1">
          <mxGeometry relative="1" as="geometry" />
        </mxCell>
        <mxCell id="gs2BWEIWhmqGeNFwZReW-8" value="PLCからステーション&lt;br&gt;情報取得" style="rounded=1;whiteSpace=wrap;html=1;" parent="1" vertex="1">
          <mxGeometry x="372.5" y="510" width="150" height="70" as="geometry" />
        </mxCell>
        <mxCell id="gs2BWEIWhmqGeNFwZReW-9" style="edgeStyle=orthogonalEdgeStyle;rounded=0;orthogonalLoop=1;jettySize=auto;html=1;entryX=0;entryY=0.5;entryDx=0;entryDy=0;" parent="1" source="gs2BWEIWhmqGeNFwZReW-10" target="gs2BWEIWhmqGeNFwZReW-8" edge="1">
          <mxGeometry relative="1" as="geometry">
            <mxPoint x="452.5" y="735" as="targetPoint" />
            <Array as="points">
              <mxPoint x="340" y="650" />
              <mxPoint x="340" y="545" />
            </Array>
          </mxGeometry>
        </mxCell>
        <mxCell id="gs2BWEIWhmqGeNFwZReW-10" value="ステーションの情報&lt;br&gt;をサーバに送信" style="rounded=1;whiteSpace=wrap;html=1;" parent="1" vertex="1">
          <mxGeometry x="370" y="630" width="155" height="70" as="geometry" />
        </mxCell>
        <mxCell id="gs2BWEIWhmqGeNFwZReW-11" value="" style="shape=flexArrow;endArrow=classic;html=1;" parent="1" edge="1">
          <mxGeometry width="50" height="50" relative="1" as="geometry">
            <mxPoint x="610" y="410" as="sourcePoint" />
            <mxPoint x="500" y="410" as="targetPoint" />
          </mxGeometry>
        </mxCell>
        <mxCell id="gs2BWEIWhmqGeNFwZReW-12" value="プロセス分離" style="edgeLabel;html=1;align=center;verticalAlign=middle;resizable=0;points=[];" parent="gs2BWEIWhmqGeNFwZReW-11" vertex="1" connectable="0">
          <mxGeometry x="-0.0947" y="4" relative="1" as="geometry">
            <mxPoint as="offset" />
          </mxGeometry>
        </mxCell>
        <mxCell id="gs2BWEIWhmqGeNFwZReW-13" style="edgeStyle=orthogonalEdgeStyle;rounded=0;orthogonalLoop=1;jettySize=auto;html=1;" parent="1" source="gs2BWEIWhmqGeNFwZReW-14" target="gs2BWEIWhmqGeNFwZReW-8" edge="1">
          <mxGeometry relative="1" as="geometry" />
        </mxCell>
        <mxCell id="gs2BWEIWhmqGeNFwZReW-14" value="PLC_COMMS" style="ellipse;whiteSpace=wrap;html=1;aspect=fixed;" parent="1" vertex="1">
          <mxGeometry x="397.5" y="360" width="100" height="100" as="geometry" />
        </mxCell>
        <mxCell id="LhpffrZuen5v1YRQ7B42-2" style="edgeStyle=orthogonalEdgeStyle;rounded=0;orthogonalLoop=1;jettySize=auto;html=1;" parent="1" source="LhpffrZuen5v1YRQ7B42-1" target="dFKXp6tCZQXhxMECFwLC-3" edge="1">
          <mxGeometry relative="1" as="geometry" />
        </mxCell>
        <mxCell id="LhpffrZuen5v1YRQ7B42-7" style="edgeStyle=orthogonalEdgeStyle;rounded=0;orthogonalLoop=1;jettySize=auto;html=1;" parent="1" source="LhpffrZuen5v1YRQ7B42-1" target="LhpffrZuen5v1YRQ7B42-6" edge="1">
          <mxGeometry relative="1" as="geometry" />
        </mxCell>
        <mxCell id="LhpffrZuen5v1YRQ7B42-1" value="&lt;span style=&quot;color: rgb(0 , 0 , 0) ; font-family: &amp;#34;helvetica&amp;#34; ; font-size: 12px ; font-style: normal ; font-weight: 400 ; letter-spacing: normal ; text-align: center ; text-indent: 0px ; text-transform: none ; word-spacing: 0px ; background-color: rgb(248 , 249 , 250) ; display: inline ; float: none&quot;&gt;PLCの存在確認&lt;br&gt;ARP&lt;br&gt;&lt;/span&gt;" style="rhombus;whiteSpace=wrap;html=1;" parent="1" vertex="1">
          <mxGeometry x="60" y="20" width="180" height="80" as="geometry" />
        </mxCell>
        <mxCell id="LhpffrZuen5v1YRQ7B42-4" value="true" style="text;html=1;strokeColor=none;fillColor=none;align=center;verticalAlign=middle;whiteSpace=wrap;rounded=0;" parent="1" vertex="1">
          <mxGeometry x="150" y="110" width="40" height="20" as="geometry" />
        </mxCell>
        <mxCell id="LhpffrZuen5v1YRQ7B42-5" value="false" style="text;html=1;strokeColor=none;fillColor=none;align=center;verticalAlign=middle;whiteSpace=wrap;rounded=0;" parent="1" vertex="1">
          <mxGeometry x="10" y="30" width="40" height="20" as="geometry" />
        </mxCell>
        <mxCell id="LhpffrZuen5v1YRQ7B42-6" value="単独動作モード" style="rounded=1;whiteSpace=wrap;html=1;" parent="1" vertex="1">
          <mxGeometry x="-170" y="190" width="120" height="60" as="geometry" />
        </mxCell>
      </root>
    </mxGraphModel>
  </diagram>
</mxfile>
